<?xml version="1.0" encoding="UTF-8" standalone="no"?>
<!-- Created with Inkscape (http://www.inkscape.org/) -->

<svg
   width="32"
   height="32"
   viewBox="0 0 32 32"
   version="1.1"
   id="svg3137"
   sodipodi:docname="_all.svg"
   inkscape:version="1.3.2 (091e20ef0f, 2023-11-25)"
   xmlns:inkscape="http://www.inkscape.org/namespaces/inkscape"
   xmlns:sodipodi="http://sodipodi.sourceforge.net/DTD/sodipodi-0.dtd"
   xmlns="http://www.w3.org/2000/svg"
   xmlns:svg="http://www.w3.org/2000/svg">
  <sodipodi:namedview
     id="namedview3139"
     pagecolor="#ffffff"
     bordercolor="#666666"
     borderopacity="1.0"
     inkscape:showpageshadow="2"
     inkscape:pageopacity="0.0"
     inkscape:pagecheckerboard="0"
     inkscape:deskcolor="#d1d1d1"
     inkscape:document-units="px"
     showgrid="true"
     inkscape:zoom="4.6459125"
     inkscape:cx="69.200614"
     inkscape:cy="20.125217"
     inkscape:window-width="959"
     inkscape:window-height="1131"
     inkscape:window-x="26"
     inkscape:window-y="23"
     inkscape:window-maximized="0"
     inkscape:current-layer="layer1">
    <inkscape:grid
       type="xygrid"
       id="grid3258"
       empspacing="4"
       originx="0"
       originy="0"
       spacingy="1"
       spacingx="1"
       units="px"
       visible="true" />
  </sodipodi:namedview>
  <defs
     id="defs3134">
    <rect
       x="133.33415"
       y="215.41371"
       width="110.71651"
       height="36.22881"
       id="rect2-3-4-9" />
    <rect
       x="133.33415"
       y="215.41371"
       width="110.71651"
       height="36.228809"
       id="rect2-3-4-9-6" />
  </defs>
  <g
     inkscape:label="Слой 1"
     inkscape:groupmode="layer"
     id="layer1">
    <path
       style="white-space:pre;shape-inside:url(#rect2-3-2);display:inline;fill:#3eac84;stroke-width:12.2466"
       d="M 15.447867,4 C 11.76723,4 8.2615964,5.0207758 6,6.6913327 l 1.024895,1.9810412 c 2.3502865,-1.4660363 5.277701,-2.1808143 7.672318,-2.1808143 3.946707,0 6.380379,1.8037418 6.380379,4.6335214 0,3.443481 -3.589239,7.02135 -14.5868072,14.999304 V 28 H 26 V 25.547281 H 11.810178 C 21.367852,18.52418 24.809096,14.641099 24.809096,10.681153 24.809096,6.52171 21.124001,4 15.447867,4 Z"
       id="path47" />
    <text
       xml:space="preserve"
       transform="matrix(3.0347739,0,0,3.0347739,-690.07136,-656.77466)"
       id="text2-4-7-9"
       style="font-style:normal;font-variant:normal;font-weight:normal;font-stretch:normal;font-family:Symbola;-inkscape-font-specification:Symbola;white-space:pre;shape-inside:url(#rect2-3-4-9);display:inline;fill:#000000"><tspan
         x="133.33398"
         y="225.67832"
         id="tspan2">1023456789AJQK</tspan></text>
    <path
       style="font-style:normal;font-variant:normal;font-weight:normal;font-stretch:normal;font-family:Symbola;-inkscape-font-specification:Symbola;white-space:pre;shape-inside:url(#rect2-3-4-9-6);display:inline;fill:#4077bd;fill-opacity:1"
       d="m 216.64862,217.79167 v 0.36298 c 0.69531,-0.008 1.07595,0.057 1.14235,0.19372 0.0274,0.0547 0.0412,0.13459 0.0412,0.24006 v 6.24596 c 0,0.11328 -0.012,0.19948 -0.0354,0.25808 -0.0625,0.15624 -0.33808,0.23426 -0.82636,0.23426 h -0.16347 c -0.0742,-0.004 -0.12707,-0.006 -0.15832,-0.006 v 0.35718 c 0.27734,-0.0234 0.50006,-0.0348 0.66803,-0.0348 h 2.03308 c 0.1914,0 0.42545,0.0113 0.70279,0.0348 v -0.35718 c -0.69531,0.004 -1.07784,-0.0609 -1.14815,-0.19372 -0.0352,-0.0664 -0.0528,-0.15385 -0.0528,-0.26323 v -2.10387 l 1.34186,-1.27686 2.09164,3.0937 c 0.1211,0.17968 0.18149,0.31244 0.18149,0.39837 0,0.23438 -0.22838,0.34951 -0.68541,0.34561 v 0.35718 c 0.27734,-0.0234 0.63471,-0.0348 1.07221,-0.0348 0.76953,0 1.40247,0.0113 1.89856,0.0348 v -0.35718 c -0.3164,0 -0.54479,-0.0277 -0.68541,-0.0824 -0.1836,-0.0742 -0.35724,-0.23213 -0.5213,-0.47432 l -2.67215,-3.92585 2.08584,-1.99189 c 0.47266,-0.45312 1.02129,-0.68403 1.64629,-0.69185 v -0.36298 c -0.20703,0.0234 -0.67388,0.0354 -1.40044,0.0354 -0.43359,0 -0.78465,-0.012 -1.05418,-0.0354 v 0.36298 c 0.35546,0.008 0.53288,0.13114 0.53288,0.36942 0,0.12891 -0.0705,0.25977 -0.21109,0.39258 l -3.62079,3.4451 v -3.72634 c 0,-0.11328 0.012,-0.19948 0.0354,-0.25808 0.0625,-0.15625 0.33932,-0.23426 0.83151,-0.23426 0.0391,0 0.0957,0.002 0.16991,0.006 0.0742,0.004 0.12895,0.006 0.16411,0.006 v -0.36298 c -0.27344,0.0234 -0.50748,0.0354 -0.70279,0.0354 h -2.00412 c -0.1914,0 -0.42356,-0.012 -0.69699,-0.0354 z"
       transform="matrix(3.0347739,0,0,3.0347739,-346.07136,-656.77466)"
       id="path13" />
    <path
       style="font-style:normal;font-variant:normal;font-weight:normal;font-stretch:normal;font-family:Symbola;-inkscape-font-specification:Symbola;white-space:pre;shape-inside:url(#rect2-3-4-9-6);display:inline;fill:#4077bd;fill-opacity:1"
       d="m 203.89283,217.79167 v 0.36298 c 0.91796,-0.0117 1.41562,0.0588 1.49375,0.2111 0.0352,0.0703 0.0528,0.16217 0.0528,0.27545 v 5.33208 c 0,0.41796 -0.0919,0.78917 -0.27545,1.11339 -0.22266,0.39453 -0.52717,0.59145 -0.91389,0.59145 -0.57031,0 -0.99437,-0.22272 -1.27171,-0.66803 0.48828,0.008 0.73239,-0.20673 0.73239,-0.64423 0,-0.18359 -0.0604,-0.33585 -0.18149,-0.45694 -0.12109,-0.125 -0.27335,-0.18793 -0.45694,-0.18793 -0.19141,0 -0.34743,0.0648 -0.46853,0.19372 -0.11719,0.125 -0.1757,0.28291 -0.1757,0.47432 0,0.45703 0.19692,0.8339 0.59146,1.13077 0.36328,0.27344 0.78104,0.41061 1.25369,0.41061 0.5625,0 1.05703,-0.17618 1.48281,-0.52774 0.45313,-0.375 0.67963,-0.83742 0.67963,-1.3882 v -5.38485 c 0,-0.21485 0.0585,-0.35579 0.17569,-0.42219 0.0781,-0.043 0.23416,-0.0644 0.46853,-0.0644 -0.008,0 0.0746,0.004 0.24649,0.0116 v -0.36298 c -0.50781,0.0234 -0.90418,0.0354 -1.18933,0.0354 h -1.30133 c -0.32422,0 -0.63816,-0.012 -0.94284,-0.0354 z"
       transform="matrix(3.0347739,0,0,3.0347739,-346.07136,-656.77466)"
       id="path12" />
    <path
       id="path11"
       style="font-style:normal;font-variant:normal;font-weight:normal;font-stretch:normal;font-family:Symbola;-inkscape-font-specification:Symbola;white-space:pre;shape-inside:url(#rect2-3-4-9-6);display:inline;fill:#4077bd;fill-opacity:1"
       transform="matrix(3.0347739,0,0,3.0347739,-346.07136,-656.77466)"
       d="m 190.37504,217.54518 c -0.70704,0 -1.30663,0.25419 -1.79882,0.762 -0.51953,0.53516 -0.77937,1.19703 -0.77937,1.9861 0,0.72656 0.22272,1.35573 0.66803,1.88698 0.46875,0.55859 1.0608,0.83794 1.77565,0.83794 0.69921,0 1.20883,-0.40833 1.52915,-1.22473 0,0.82031 -0.0529,1.46521 -0.15832,1.93396 -0.16797,0.76172 -0.48633,1.2965 -0.95508,1.60509 -0.27734,0.18359 -0.56612,0.27545 -0.8669,0.27545 -0.55078,0 -0.95157,-0.14848 -1.20157,-0.44535 0.17187,0.0195 0.32036,-0.0251 0.44536,-0.13451 0.1289,-0.10938 0.19307,-0.25032 0.19307,-0.42219 0,-0.16016 -0.0541,-0.29291 -0.16347,-0.39838 -0.10937,-0.10937 -0.24465,-0.16411 -0.40481,-0.16411 -0.37109,0 -0.5567,0.19568 -0.5567,0.5863 0,0.44531 0.17995,0.78317 0.53932,1.01364 0.30469,0.19922 0.69163,0.29862 1.16038,0.29862 0.65625,0 1.24766,-0.25607 1.775,-0.76779 0.46484,-0.44922 0.80712,-1.01169 1.02587,-1.68747 0.17578,-0.54297 0.26322,-1.15388 0.26322,-1.83357 0,-1.95312 -0.46495,-3.219 -1.39464,-3.79713 -0.33203,-0.20703 -0.69694,-0.31085 -1.09537,-0.31085 z m 0,0.29348 c 0.53906,0 0.92977,0.3259 1.17196,0.97824 0.13281,0.35547 0.19886,0.92801 0.19886,1.71708 0,0.55859 -0.10694,1.03863 -0.32179,1.44098 -0.26953,0.5039 -0.65835,0.7562 -1.16617,0.7562 -0.51171,0 -0.89235,-0.25796 -1.14235,-0.77358 -0.14454,-0.30078 -0.21689,-0.76574 -0.21689,-1.39464 v -0.50393 c 0,-0.65234 0.0837,-1.13491 0.25164,-1.44741 0.27734,-0.51563 0.68567,-0.77294 1.22474,-0.77294 z" />
    <path
       id="path10"
       style="font-style:normal;font-variant:normal;font-weight:normal;font-stretch:normal;font-family:Symbola;-inkscape-font-specification:Symbola;white-space:pre;shape-inside:url(#rect2-3-4-9-6);display:inline;fill:#4077bd;fill-opacity:1"
       transform="matrix(3.0347739,0,0,3.0347739,-346.07136,-656.77466)"
       d="m 184.33953,217.54518 c -0.58985,0 -1.10135,0.19002 -1.53495,0.56893 -0.45312,0.39453 -0.67962,0.88276 -0.67962,1.46479 0,0.51172 0.17806,0.96094 0.53353,1.34766 0.38672,0.3125 0.68746,0.53081 0.9023,0.65581 -1.17578,0.58203 -1.76406,1.33199 -1.76406,2.24996 0,0.63281 0.26992,1.15251 0.80899,1.55876 0.48828,0.36718 1.06018,0.5509 1.71643,0.5509 0.67578,0 1.26153,-0.21265 1.75762,-0.63843 0.52344,-0.44922 0.78517,-1.00603 0.78517,-1.67009 0,-0.56641 -0.19881,-1.07037 -0.59724,-1.51178 -0.14453,-0.16015 -0.33391,-0.31807 -0.56829,-0.47432 -0.0625,-0.043 -0.27579,-0.17383 -0.63907,-0.39258 0.98828,-0.50391 1.48281,-1.13496 1.48281,-1.89278 0,-0.54687 -0.23657,-0.99421 -0.70923,-1.34186 -0.42578,-0.31641 -0.92408,-0.47497 -1.49439,-0.47497 z m -0.0174,0.29348 c 0.44531,0 0.83225,0.14029 1.16038,0.42154 0.34765,0.29688 0.5213,0.66431 0.5213,1.10181 0,0.67188 -0.40645,1.24189 -1.21895,1.71064 -0.88671,-0.57031 -1.38815,-0.8981 -1.50533,-0.98403 -0.41407,-0.30078 -0.62106,-0.62921 -0.62106,-0.98468 0,-0.39063 0.18496,-0.7071 0.55606,-0.94929 0.32812,-0.21093 0.69744,-0.31599 1.1076,-0.31599 z m -0.48591,3.93743 c 0.70313,0.42578 1.20456,0.74225 1.50534,0.94928 0.30078,0.20313 0.51597,0.38432 0.64487,0.54447 0.1836,0.23047 0.27545,0.49473 0.27545,0.79161 0,0.46093 -0.21141,0.84157 -0.63328,1.14235 -0.37891,0.26954 -0.80863,0.40417 -1.28909,0.40417 -0.51563,0 -0.96232,-0.16421 -1.34123,-0.49234 -0.39453,-0.34765 -0.59209,-0.77549 -0.59209,-1.2833 0,-0.84765 0.47691,-1.5328 1.43003,-2.05624 z" />
    <path
       id="path9"
       style="font-style:normal;font-variant:normal;font-weight:normal;font-stretch:normal;font-family:Symbola;-inkscape-font-specification:Symbola;white-space:pre;shape-inside:url(#rect2-3-4-9-6);display:inline;fill:#4077bd;fill-opacity:1"
       transform="matrix(3.0347739,0,0,3.0347739,-346.07136,-656.77466)"
       d="m 173.01957,217.54518 c -0.46094,0 -0.90828,0.12898 -1.34187,0.38679 -0.625,0.375 -1.1038,0.93559 -1.43583,1.68168 -0.29297,0.66407 -0.43892,1.39641 -0.43892,2.19719 0,1.07422 0.16168,1.96889 0.4859,2.68374 0.43359,0.96484 1.12316,1.44741 2.06847,1.44741 0.73047,0 1.33825,-0.27935 1.82262,-0.83794 0.46094,-0.53516 0.69121,-1.17376 0.69121,-1.91594 0,-0.73047 -0.22272,-1.35964 -0.66804,-1.88698 -0.46875,-0.5586 -1.0608,-0.83795 -1.77564,-0.83795 -0.6875,0 -1.19523,0.40267 -1.52336,1.20736 0,-1.85156 0.41022,-3.0369 1.23053,-3.55643 0.28906,-0.1836 0.59169,-0.27545 0.9081,-0.27545 0.49218,0 0.84955,0.1661 1.0722,0.49813 -0.44531,-0.0195 -0.66739,0.16166 -0.66739,0.54447 0,0.16015 0.0522,0.29479 0.15768,0.40417 0.10937,0.10937 0.24465,0.16411 0.40481,0.16411 0.16797,0 0.30261,-0.0566 0.40417,-0.1699 0.10547,-0.11329 0.15832,-0.25547 0.15832,-0.42734 0,-0.42188 -0.15856,-0.75219 -0.47496,-0.99048 -0.28125,-0.21093 -0.6405,-0.31664 -1.078,-0.31664 z m -0.59789,3.19925 c 0.50781,0 0.88468,0.2523 1.13077,0.75621 0.14844,0.30468 0.22268,0.76964 0.22268,1.39464 v 0.60947 c 0,0.58203 -0.0698,1.01741 -0.21045,1.30647 -0.25781,0.53125 -0.66048,0.79675 -1.20736,0.79675 -0.26562,0 -0.51351,-0.0919 -0.74398,-0.27545 -0.21094,-0.16797 -0.36696,-0.38251 -0.46853,-0.64422 -0.14843,-0.375 -0.22268,-0.96517 -0.22268,-1.76985 0,-0.55078 0.11137,-1.02706 0.33402,-1.4294 0.26953,-0.49609 0.65772,-0.74462 1.16553,-0.74462 z" />
    <path
       style="font-style:normal;font-variant:normal;font-weight:normal;font-stretch:normal;font-family:Symbola;-inkscape-font-specification:Symbola;white-space:pre;shape-inside:url(#rect2-3-4-9-6);display:inline;fill:#4077bd;fill-opacity:1"
       d="m 168.17404,217.54518 c -0.0234,0 -0.0587,0.0101 -0.10555,0.0296 -0.57422,0.24218 -1.12537,0.36298 -1.65271,0.36298 -0.4375,0 -0.98047,-0.11702 -1.62891,-0.3514 -0.0664,-0.0234 -0.11673,-0.0347 -0.15189,-0.0347 -0.0781,0 -0.11713,0.066 -0.11713,0.19886 v 3.79714 c 0,0.16015 0.0566,0.24005 0.16991,0.24005 0.0312,0 0.12058,-0.0837 0.26902,-0.25164 0.17578,-0.20703 0.35195,-0.3637 0.52773,-0.46917 0.27735,-0.16797 0.5894,-0.25164 0.93706,-0.25164 0.46484,0 0.81277,0.26173 1.04324,0.78517 0.14453,0.32813 0.21689,0.83963 0.21689,1.53494 0,0.78516 -0.0956,1.34386 -0.28704,1.67589 -0.30859,0.53125 -0.7465,0.79675 -1.3129,0.79675 -0.40625,0 -0.77871,-0.13086 -1.11855,-0.39258 -0.33594,-0.26172 -0.56055,-0.58951 -0.67383,-0.98404 0.0625,0.0195 0.12856,0.029 0.19887,0.029 0.17187,0 0.31658,-0.0566 0.43377,-0.1699 0.1211,-0.11719 0.18149,-0.2619 0.18149,-0.43378 0,-0.17187 -0.0604,-0.31405 -0.18149,-0.42733 -0.11719,-0.11329 -0.2619,-0.16991 -0.43377,-0.16991 -0.39453,0 -0.59145,0.21642 -0.59145,0.65002 0,0.60547 0.21642,1.12893 0.65001,1.57034 0.4336,0.4414 0.95329,0.66224 1.55876,0.66224 0.73828,0 1.36492,-0.26739 1.88054,-0.80254 0.51954,-0.53907 0.77938,-1.1802 0.77938,-1.92238 0,-0.69922 -0.20699,-1.30824 -0.62105,-1.82777 -0.44922,-0.5625 -1.01358,-0.84374 -1.69327,-0.84374 -0.60547,0 -1.12139,0.20699 -1.54717,0.62106 v -2.37289 c 0.35156,0.10547 0.69573,0.15832 1.03166,0.15832 0.86719,0 1.58192,-0.31458 2.14442,-0.94349 0.14062,-0.15625 0.21109,-0.26573 0.21109,-0.32823 0,-0.0898 -0.039,-0.13515 -0.11713,-0.13515 z"
       transform="matrix(3.0347739,0,0,3.0347739,-346.07136,-656.77466)"
       id="path8" />
    <path
       style="font-style:normal;font-variant:normal;font-weight:normal;font-stretch:normal;font-family:Symbola;-inkscape-font-specification:Symbola;white-space:pre;shape-inside:url(#rect2-3-4-9-6);display:inline;fill:#4077bd;fill-opacity:1"
       d="m 154.29327,217.54518 c -0.54297,0 -1.02554,0.13906 -1.44742,0.4164 -0.48046,0.31641 -0.72081,0.73228 -0.72081,1.2479 0,0.1875 0.0566,0.33976 0.16991,0.45695 0.11719,0.11328 0.26944,0.1699 0.45694,0.1699 0.17969,0 0.32629,-0.0585 0.43957,-0.17569 0.11719,-0.11719 0.1757,-0.26568 0.1757,-0.44536 0,-0.41797 -0.25166,-0.62308 -0.75557,-0.61527 0.32813,-0.50781 0.87109,-0.76135 1.62891,-0.76135 0.38671,0 0.68304,0.13652 0.89007,0.40996 0.1875,0.24609 0.28124,0.56822 0.28124,0.96666 0,0.5625 -0.11324,1.02745 -0.33981,1.39464 -0.23828,0.39062 -0.59941,0.60139 -1.08379,0.63264 -0.125,0.008 -0.25209,0.0141 -0.381,0.018 -0.1875,0.0234 -0.28124,0.0782 -0.28124,0.16411 0,0.0899 0.0648,0.13451 0.19371,0.13451 h 0.63265 c 0.52343,0 0.90849,0.22084 1.15458,0.66225 0.19922,0.34765 0.29862,0.80442 0.29862,1.37083 0,0.53515 -0.0937,0.9806 -0.28124,1.33607 -0.24219,0.45313 -0.60774,0.67962 -1.09602,0.67962 -0.375,0 -0.72795,-0.0761 -1.05998,-0.22847 -0.36328,-0.16797 -0.63509,-0.40265 -0.81478,-0.70343 0.0391,0.004 0.0781,0.006 0.11714,0.006 0.19531,0 0.35952,-0.0629 0.49234,-0.18792 0.13671,-0.125 0.2053,-0.28669 0.2053,-0.48591 0,-0.19531 -0.0667,-0.35764 -0.19951,-0.48654 -0.12891,-0.13282 -0.29124,-0.19951 -0.48655,-0.19951 -0.20703,0 -0.37313,0.0667 -0.49813,0.19951 -0.125,0.13281 -0.18728,0.30268 -0.18728,0.50971 0,0.58985 0.27369,1.06612 0.82056,1.4294 0.48438,0.32031 1.03489,0.48075 1.65208,0.48075 0.68359,0 1.2813,-0.21706 1.79302,-0.65066 0.53515,-0.46094 0.80254,-1.02718 0.80254,-1.69905 0,-0.55469 -0.20511,-1.04104 -0.61526,-1.459 -0.38281,-0.39063 -0.8572,-0.64229 -1.4236,-0.75557 0.48828,-0.16015 0.89095,-0.43007 1.20735,-0.80898 0.33985,-0.40234 0.50972,-0.84968 0.50972,-1.34187 0,-0.52344 -0.25419,-0.94497 -0.762,-1.26528 -0.4375,-0.27734 -0.93327,-0.4164 -1.48796,-0.4164 z"
       transform="matrix(3.0347739,0,0,3.0347739,-346.07136,-656.77466)"
       id="path7" />
    <path
       style="font-style:normal;font-variant:normal;font-weight:normal;font-stretch:normal;font-family:Symbola;-inkscape-font-specification:Symbola;white-space:pre;shape-inside:url(#rect2-3-4-9-6);display:inline;fill:#4077bd;fill-opacity:1"
       d="m 148.18182,217.54518 c -0.61719,0 -1.15261,0.21518 -1.60574,0.64487 -0.45312,0.42969 -0.67962,0.95127 -0.67962,1.56455 0,0.45312 0.21707,0.67962 0.65066,0.67962 0.17969,0 0.33006,-0.0623 0.45115,-0.18728 0.12109,-0.125 0.18149,-0.2779 0.18149,-0.45759 0,-0.42578 -0.23657,-0.63843 -0.70923,-0.63843 -0.0391,0 -0.0724,0.004 -0.0998,0.0116 0.1289,-0.36718 0.3422,-0.66604 0.63908,-0.89651 0.29687,-0.23046 0.63473,-0.3456 1.01364,-0.3456 0.52343,0 0.93365,0.20699 1.23052,0.62106 0.26954,0.37109 0.40417,0.8285 0.40417,1.37147 0,0.85156 -0.42594,1.75189 -1.27751,2.70111 l -2.34328,2.60715 c -0.0937,0.10547 -0.14094,0.22249 -0.14094,0.3514 v 0.10554 h 4.53532 l 0.33402,-2.1206 h -0.30506 c -0.10156,0.66016 -0.19089,1.02318 -0.26902,1.08959 -0.0781,0.0625 -0.38328,0.094 -0.91453,0.094 h -2.43724 l 2.50739,-2.4321 c 0.47266,-0.46093 0.79543,-0.81453 0.96731,-1.06062 0.30078,-0.42969 0.45115,-0.87449 0.45115,-1.33543 0,-0.71094 -0.25608,-1.28914 -0.76779,-1.73445 -0.48829,-0.42188 -1.09354,-0.63329 -1.81619,-0.63329 z"
       id="path6"
       transform="matrix(3.0347739,0,0,3.0347739,-346.07136,-656.77466)" />
    <path
       id="path5"
       style="font-style:normal;font-variant:normal;font-weight:normal;font-stretch:normal;font-family:Symbola;-inkscape-font-specification:Symbola;white-space:pre;shape-inside:url(#rect2-3-4-9-6);display:inline;fill:#4077bd;fill-opacity:1"
       transform="matrix(3.0347739,0,0,3.0347739,-346.07136,-656.77466)"
       d="m 142.33423,217.54518 c -0.96093,0 -1.67,0.48257 -2.12703,1.44742 -0.29688,0.625 -0.44536,1.55302 -0.44536,2.78349 0,1.32031 0.18183,2.30054 0.54511,2.94117 0.46094,0.8164 1.13224,1.22473 2.01506,1.22473 0.95312,0 1.6603,-0.4725 2.12124,-1.41781 0.30469,-0.625 0.45694,-1.54106 0.45694,-2.74809 0,-1.26953 -0.16168,-2.22649 -0.4859,-2.87102 -0.45703,-0.90625 -1.15037,-1.35989 -2.08006,-1.35989 z m -0.0122,0.26387 c 0.66015,0 1.10938,0.37121 1.34766,1.1134 0.14453,0.4414 0.21688,1.08378 0.21688,1.92752 v 1.52336 c 0,0.90625 -0.066,1.59393 -0.19886,2.06268 -0.23828,0.82813 -0.69381,1.24211 -1.36568,1.24211 -0.67578,0 -1.12878,-0.42972 -1.35925,-1.28909 -0.1289,-0.47266 -0.19307,-1.17542 -0.19307,-2.10902 v -0.70922 c -0.004,-0.31641 -0.006,-0.55487 -0.006,-0.71502 0,-0.83985 0.0724,-1.48222 0.21689,-1.92753 0.23828,-0.74609 0.68498,-1.11919 1.34123,-1.11919 z" />
    <path
       style="font-style:normal;font-variant:normal;font-weight:normal;font-stretch:normal;font-family:Symbola;-inkscape-font-specification:Symbola;white-space:pre;shape-inside:url(#rect2-3-4-9-6);display:inline;fill:#4077bd;fill-opacity:1"
       d="m 136.54522,217.54518 c -0.50391,0.51953 -1.24444,0.77938 -2.221,0.77938 v 0.37521 c 0.63671,0 1.16772,-0.10571 1.5935,-0.31664 v 6.36952 c 0,0.13672 -0.0176,0.2399 -0.0528,0.31021 -0.0859,0.16797 -0.42757,0.25228 -1.02522,0.25228 -0.0508,0 -0.12691,-0.002 -0.22848,-0.006 -0.0977,-0.004 -0.17001,-0.006 -0.21688,-0.006 v 0.37456 c 0.27734,-0.0234 0.54096,-0.0348 0.79096,-0.0348 h 2.36709 c 0.25391,0 0.52006,0.0113 0.7974,0.0348 v -0.37456 c -0.47266,0.004 -0.73627,0.004 -0.79096,0 -0.39844,-0.0273 -0.62747,-0.106 -0.68606,-0.23491 -0.0312,-0.0664 -0.0463,-0.16392 -0.0463,-0.29283 v -6.91979 c 0,-0.1289 -0.006,-0.20503 -0.018,-0.22847 -0.0234,-0.0547 -0.0914,-0.0824 -0.20466,-0.0824 z"
       transform="matrix(3.0347739,0,0,3.0347739,-346.07136,-656.77466)"
       id="path4" />
    <path
       id="path3"
       style="font-style:normal;font-variant:normal;font-weight:normal;font-stretch:normal;font-family:Symbola;-inkscape-font-specification:Symbola;white-space:pre;shape-inside:url(#rect2-3-4-9-6);display:inline;fill:#4077bd;fill-opacity:1"
       transform="matrix(3.0347739,0,0,3.0347739,-346.07136,-656.77466)"
       d="m 211.94339,217.5336 c -1.09766,0 -2.01938,0.43602 -2.76547,1.30711 -0.71094,0.83203 -1.06642,1.80472 -1.06642,2.918 0,1.10938 0.35925,2.07388 1.078,2.89419 0.7461,0.85156 1.66782,1.27751 2.76547,1.27751 0.35547,0 0.71914,-0.0585 1.09023,-0.1757 0.0859,0.64844 0.19477,1.11528 0.32758,1.40043 0.23047,0.50782 0.59225,0.76136 1.08444,0.76136 0.47656,0 0.84147,-0.24789 1.09538,-0.74398 0.20312,-0.39453 0.30505,-0.85571 0.30505,-1.38306 0,-0.16015 -0.0453,-0.24005 -0.13515,-0.24005 -0.0469,0 -0.0878,0.0686 -0.12292,0.2053 -0.16407,0.64844 -0.51577,0.97245 -1.05483,0.97245 -0.49219,0 -0.85898,-0.37498 -1.10117,-1.12498 0.72265,-0.32812 1.29644,-0.85347 1.72222,-1.57613 0.41016,-0.69531 0.61527,-1.45093 0.61527,-2.26734 0,-1.11718 -0.35548,-2.08987 -1.06642,-2.918 -0.74609,-0.87109 -1.6697,-1.30711 -2.77126,-1.30711 z m 0,0.29347 c 0.39062,0 0.77315,0.11325 1.14815,0.33981 1.02344,0.61719 1.53559,1.81449 1.53559,3.59183 0,1.61719 -0.45553,2.76164 -1.36569,3.43351 -0.30078,-0.8125 -0.73238,-1.21894 -1.29488,-1.21894 -0.26563,0 -0.49212,0.0956 -0.67962,0.28703 -0.1836,0.19141 -0.27546,0.41979 -0.27546,0.68542 0,0.1914 0.0547,0.37512 0.16412,0.5509 -0.67578,-0.25 -1.18163,-0.76339 -1.51757,-1.54073 -0.26953,-0.63281 -0.40417,-1.36516 -0.40417,-2.19719 0,-1.78906 0.52158,-2.99078 1.56455,-3.60406 0.37109,-0.21875 0.74607,-0.32758 1.12498,-0.32758 z m 0.0232,6.39785 c 0.53125,0 0.86722,0.38317 1.00785,1.14879 -0.32031,0.17969 -0.66006,0.26966 -1.01944,0.26966 -0.19921,0 -0.36343,-0.0667 -0.49234,-0.19951 -0.1289,-0.13281 -0.19307,-0.29891 -0.19307,-0.49813 0,-0.19531 0.0667,-0.3633 0.19951,-0.50393 0.13672,-0.14453 0.30218,-0.21688 0.49749,-0.21688 z" />
    <path
       style="font-style:normal;font-variant:normal;font-weight:normal;font-stretch:normal;font-family:Symbola;-inkscape-font-specification:Symbola;white-space:pre;shape-inside:url(#rect2-3-4-9-6);display:inline;fill:#4077bd;fill-opacity:1"
       d="m 176.11326,217.41647 -0.40416,2.51962 h 0.30441 c 0.11328,-0.68359 0.21521,-1.0548 0.30506,-1.1134 0.0742,-0.0469 0.33972,-0.0701 0.79675,-0.0701 h 2.92379 c -0.60156,0.85938 -1.05455,1.50175 -1.35924,1.92753 -1,1.5625 -1.50019,3.09389 -1.50019,4.59389 0,0.44531 0.1856,0.66803 0.5567,0.66803 0.375,0 0.56249,-0.22272 0.56249,-0.66803 0,-1.16407 0.0447,-2.04112 0.13451,-2.63097 0.13281,-0.8789 0.38323,-1.57413 0.75041,-2.08585 l 1.65787,-2.31432 c 0.0742,-0.10546 0.11134,-0.2206 0.11134,-0.3456 v -0.0882 h -2.97077 c -0.86719,0 -1.36108,-0.0661 -1.48217,-0.19887 -0.0469,-0.0508 -0.0746,-0.11559 -0.0824,-0.19371 z"
       transform="matrix(3.0347739,0,0,3.0347739,-346.07136,-656.77466)"
       id="path2" />
    <path
       id="path1"
       style="font-style:normal;font-variant:normal;font-weight:normal;font-stretch:normal;font-family:Symbola;-inkscape-font-specification:Symbola;white-space:pre;shape-inside:url(#rect2-3-4-9-6);display:inline;fill:#4077bd;fill-opacity:1"
       transform="matrix(3.0347739,0,0,3.0347739,-346.07136,-656.77466)"
       d="m 197.68162,217.41067 c -0.125,0 -0.21497,0.078 -0.26966,0.23427 l -2.39606,6.89662 c -0.17578,0.51172 -0.60361,0.77156 -1.2833,0.77938 v 0.35718 c 0.53516,-0.0234 0.92334,-0.0348 1.16553,-0.0348 0.15234,0 0.59779,0.0113 1.33607,0.0348 v -0.35718 c -0.21484,0 -0.40422,-0.0447 -0.56828,-0.13451 -0.20312,-0.10547 -0.30441,-0.25837 -0.30441,-0.45759 0,-0.1289 0.0761,-0.40195 0.22847,-0.81992 l 0.32822,-0.85532 h 2.853 c 0.1211,0.33203 0.24253,0.6617 0.36363,0.98983 0.18359,0.50781 0.27545,0.81862 0.27545,0.9319 0,0.23438 -0.31647,0.34951 -0.94928,0.34561 v 0.35718 c 0.28906,-0.0234 0.65397,-0.0348 1.09537,-0.0348 0.89063,0 1.58396,0.0113 2.08006,0.0348 v -0.35718 c -0.3711,0.008 -0.60514,2.7e-4 -0.70279,-0.0232 -0.2461,-0.0547 -0.41031,-0.20129 -0.49234,-0.43957 l -2.49002,-7.21326 c -0.0547,-0.15625 -0.14466,-0.23427 -0.26966,-0.23427 z m -0.33981,1.52336 1.30068,3.75594 h -2.58978 z" />
    <path
       id="text2-4-7-9-5"
       style="font-style:normal;font-variant:normal;font-weight:normal;font-stretch:normal;font-family:Symbola;-inkscape-font-specification:Symbola;white-space:pre;shape-inside:url(#rect2-3-4-9-6);display:inline;fill:#4077bd;fill-opacity:1"
       transform="matrix(3.0347739,0,0,3.0347739,-346.07136,-656.77466)"
       d="m 161.62302,217.40488 c -0.10156,0 -0.18335,0.0491 -0.24585,0.14674 l -3.75015,5.73045 v 0.37456 h 3.25202 v 1.1488 c 0,0.12109 -0.0176,0.21484 -0.0528,0.28124 -0.0781,0.14844 -0.33232,0.22268 -0.762,0.22268 -0.0664,0 -0.19097,-0.002 -0.37457,-0.006 v 0.37456 c 0.32422,-0.0234 0.59538,-0.0348 0.81413,-0.0348 h 1.6701 c 0.23047,0 0.50793,0.0113 0.83215,0.0348 v -0.37456 c -0.68359,0.004 -1.06299,-0.0685 -1.13721,-0.21689 -0.0352,-0.0703 -0.0528,-0.16405 -0.0528,-0.28124 v -1.1488 h 1.21894 v -0.37456 h -1.21894 v -5.55475 c 0,-0.125 -0.004,-0.19925 -0.0116,-0.22268 -0.0234,-0.0664 -0.0838,-0.0998 -0.18149,-0.0998 z m -0.67383,1.32449 v 4.5527 h -2.98236 z" />
  </g>
</svg>
