<?xml version="1.0" encoding="UTF-8" standalone="no"?>
<!-- Created with Inkscape (http://www.inkscape.org/) -->

<svg
   width="32"
   height="32"
   viewBox="0 0 32 32"
   version="1.1"
   id="svg3137"
   sodipodi:docname="v_1.svg"
   inkscape:version="1.3.2 (091e20ef0f, 2023-11-25)"
   xmlns:inkscape="http://www.inkscape.org/namespaces/inkscape"
   xmlns:sodipodi="http://sodipodi.sourceforge.net/DTD/sodipodi-0.dtd"
   xmlns="http://www.w3.org/2000/svg"
   xmlns:svg="http://www.w3.org/2000/svg">
  <sodipodi:namedview
     id="namedview3139"
     pagecolor="#ffffff"
     bordercolor="#666666"
     borderopacity="1.0"
     inkscape:showpageshadow="2"
     inkscape:pageopacity="0.0"
     inkscape:pagecheckerboard="0"
     inkscape:deskcolor="#d1d1d1"
     inkscape:document-units="px"
     showgrid="true"
     inkscape:zoom="26.28125"
     inkscape:cx="16"
     inkscape:cy="16"
     inkscape:window-width="959"
     inkscape:window-height="1131"
     inkscape:window-x="26"
     inkscape:window-y="23"
     inkscape:window-maximized="0"
     inkscape:current-layer="layer1">
    <inkscape:grid
       type="xygrid"
       id="grid3258"
       empspacing="4"
       originx="0"
       originy="0"
       spacingy="1"
       spacingx="1"
       units="px"
       visible="true" />
  </sodipodi:namedview>
  <defs
     id="defs3134" />
  <g
     inkscape:label="Слой 1"
     inkscape:groupmode="layer"
     id="layer1">
    <path
       id="path1"
       style="font-style:normal;font-variant:normal;font-weight:normal;font-stretch:normal;font-family:Symbola;-inkscape-font-specification:Symbola;white-space:pre;shape-inside:url(#rect2-3-4-9-6);display:inline;fill:#4077bd;fill-opacity:1;stroke-width:2.96897"
       d="m 15.991211,4.000087 c -0.379565,0 -0.652758,0.2264294 -0.818825,0.6800719 L 7.8967435,24.700635 C 7.3629872,26.186127 6.0638803,26.940427 4,26.963128 V 28 c 1.6250147,-0.06793 2.8037242,-0.101021 3.539135,-0.101021 0.4625808,0 1.8151906,0.0328 4.056981,0.101021 v -1.036872 c -0.652363,0 -1.227417,-0.129761 -1.7255852,-0.390475 -0.6167736,-0.306172 -0.924342,-0.750031 -0.924342,-1.328356 0,-0.374188 0.231078,-1.166836 0.6937488,-2.380179 l 0.9966414,-2.482942 h 8.663142 c 0.36772,0.963863 0.736444,1.920875 1.104163,2.873417 0.557472,1.474142 0.836405,2.376404 0.836405,2.70525 0,0.680391 -0.960961,1.014606 -2.88249,1.003285 V 28 c 0.87773,-0.06793 1.985782,-0.101021 3.326094,-0.101021 2.704399,0 4.809698,0.0328 6.316107,0.101021 v -1.036872 c -1.126847,0.02323 -1.837509,7.84e-4 -2.134024,-0.06735 -0.747283,-0.158795 -1.245907,-0.584338 -1.494991,-1.276049 L 16.810033,4.6800717 C 16.643936,4.2264873 16.370773,4 15.991211,4 Z M 14.959375,8.4223101 18.908894,19.32558 h -7.863875 z" />
  </g>
</svg>
