<?xml version="1.0" encoding="UTF-8" standalone="no"?>
<!-- Created with Inkscape (http://www.inkscape.org/) -->

<svg
   width="32"
   height="32"
   viewBox="0 0 32 32"
   version="1.1"
   id="svg3137"
   sodipodi:docname="v_10.svg"
   inkscape:version="1.3.2 (091e20ef0f, 2023-11-25)"
   xmlns:inkscape="http://www.inkscape.org/namespaces/inkscape"
   xmlns:sodipodi="http://sodipodi.sourceforge.net/DTD/sodipodi-0.dtd"
   xmlns="http://www.w3.org/2000/svg"
   xmlns:svg="http://www.w3.org/2000/svg">
  <sodipodi:namedview
     id="namedview3139"
     pagecolor="#ffffff"
     bordercolor="#666666"
     borderopacity="1.0"
     inkscape:showpageshadow="2"
     inkscape:pageopacity="0.0"
     inkscape:pagecheckerboard="0"
     inkscape:deskcolor="#d1d1d1"
     inkscape:document-units="px"
     showgrid="true"
     inkscape:zoom="26.28125"
     inkscape:cx="16.26635"
     inkscape:cy="17.293698"
     inkscape:window-width="959"
     inkscape:window-height="1131"
     inkscape:window-x="26"
     inkscape:window-y="23"
     inkscape:window-maximized="0"
     inkscape:current-layer="layer1">
    <inkscape:grid
       type="xygrid"
       id="grid3258"
       empspacing="4"
       originx="0"
       originy="0"
       spacingy="1"
       spacingx="1"
       units="px"
       visible="true" />
  </sodipodi:namedview>
  <defs
     id="defs3134" />
  <g
     inkscape:label="Слой 1"
     inkscape:groupmode="layer"
     id="layer1">
    <path
       id="path5"
       style="font-style:normal;font-variant:normal;font-weight:normal;font-stretch:normal;font-family:Symbola;-inkscape-font-specification:Symbola;white-space:pre;shape-inside:url(#rect2-3-4-9-6);display:inline;fill:#4077bd;fill-opacity:1;stroke-width:2.85822"
       d="M 21.532362,4 C 18.785805,4 17.579237,5.2863893 16.272941,8.0441508 15.42439,9.8305443 15,12.483037 15,16 c 0,3.773747 0.519712,6.575468 1.558049,8.406536 C 17.875521,26.739994 18.974133,28 21.497434,28 24.221669,28 25.376489,26.55658 26.693961,23.854668 27.564834,22.068276 28,19.449967 28,16 28,12.371393 27.537881,9.6361834 26.611186,7.7939691 25.30489,5.2036997 24.189628,4 21.532362,4 Z m -0.03938,0.7542007 c 1.38174,0 1.554338,0.9680959 2.053074,3.0894444 C 23.848566,9.1052673 24,10.941336 24,13.352937 v 4.35411 c 0,2.59027 -0.138142,4.555816 -0.416227,5.89561 -0.498737,2.366985 -0.684521,3.643141 -2.090792,3.643141 -1.414453,0 -1.627507,-1.321144 -2.109896,-3.777419 -0.269797,-1.350971 -0.404109,-3.359618 -0.404109,-6.02806 v -2.027114 c -0.0084,-0.90437 -0.01256,-1.585943 -0.01256,-2.043689 0,-2.400483 0.151538,-4.2365232 0.453966,-5.5093208 0.498736,-2.1324955 0.698604,-3.1059945 2.07218,-3.1059945 z M 10.463655,4.0653789 C 8.5417521,5.5112092 7.1611636,6.3591533 4,6.3591533 V 7.4634248 C 5.5697118,7.4552271 6.7241212,7.3327065 7.8367466,7 v 18.27751 c 0,0.402377 -0.05697,0.706044 -0.1709157,0.912972 C 6.3806711,27.171159 5.6103431,26.938711 4,26.897641 V 28 c 0.8977607,-0.06886 2.4903897,0 3.2996497,0 h 4.3995333 c 0.821916,0 2.401889,-0.06917 3.299649,0 v -1.102359 c -1.389256,0.06011 -2.549572,0.04868 -3.67762,-0.691358 -0.101002,-0.19542 -0.149874,-0.482429 -0.149874,-0.861821 V 4.9789979 c 0,-0.3793625 -0.01942,-0.6034189 -0.05827,-0.6724045 C 10.937872,3.9960443 10.759412,4.1231452 10.463655,4.0653789 Z"
       sodipodi:nodetypes="scscscscsscsscscscscssccccscccsscccsscc" />
  </g>
</svg>
