<?xml version="1.0" encoding="UTF-8" standalone="no"?>
<!-- Created with Inkscape (http://www.inkscape.org/) -->

<svg
   width="32"
   height="32"
   viewBox="0 0 32 32"
   version="1.1"
   id="svg3137"
   sodipodi:docname="v_13.svg"
   inkscape:version="1.3.2 (091e20ef0f, 2023-11-25)"
   xmlns:inkscape="http://www.inkscape.org/namespaces/inkscape"
   xmlns:sodipodi="http://sodipodi.sourceforge.net/DTD/sodipodi-0.dtd"
   xmlns="http://www.w3.org/2000/svg"
   xmlns:svg="http://www.w3.org/2000/svg">
  <sodipodi:namedview
     id="namedview3139"
     pagecolor="#ffffff"
     bordercolor="#666666"
     borderopacity="1.0"
     inkscape:showpageshadow="2"
     inkscape:pageopacity="0.0"
     inkscape:pagecheckerboard="0"
     inkscape:deskcolor="#d1d1d1"
     inkscape:document-units="px"
     showgrid="true"
     inkscape:zoom="26.28125"
     inkscape:cx="16"
     inkscape:cy="16"
     inkscape:window-width="959"
     inkscape:window-height="1131"
     inkscape:window-x="26"
     inkscape:window-y="23"
     inkscape:window-maximized="0"
     inkscape:current-layer="layer1">
    <inkscape:grid
       type="xygrid"
       id="grid3258"
       empspacing="4"
       originx="0"
       originy="0"
       spacingy="1"
       spacingx="1"
       units="px"
       visible="true" />
  </sodipodi:namedview>
  <defs
     id="defs3134" />
  <g
     inkscape:label="Слой 1"
     inkscape:groupmode="layer"
     id="layer1">
    <path
       style="font-style:normal;font-variant:normal;font-weight:normal;font-stretch:normal;font-family:Symbola;-inkscape-font-specification:Symbola;white-space:pre;shape-inside:url(#rect2-3-4-9-6);display:inline;fill:#4077bd;fill-opacity:1;stroke-width:3.00218"
       d="m 4.0000591,4.0006999 v 1.1046158 c 2.0593337,-0.024345 3.1866939,0.1734616 3.383354,0.5895261 0.081152,0.1664623 0.1220241,0.4095825 0.1220241,0.7305473 V 25.433011 c 0,0.344731 -0.035541,0.607053 -0.104846,0.785384 -0.1851092,0.475468 -1.0013081,0.712898 -2.4474708,0.712898 H 4.4689633 C 4.2492015,26.919117 4.0926139,26.913034 4.0000591,26.913034 V 28 c 0.8214115,-0.0712 1.4810523,-0.105903 1.9785372,-0.105903 h 6.0214727 c 0.566879,0 1.260076,0.03438 2.081488,0.105903 v -1.086966 c -2.059334,0.01218 -3.192292,-0.18533 -3.400532,-0.589526 -0.104254,-0.202068 -0.156381,-0.468194 -0.156381,-0.801058 v -6.402468 l 3.974252,-3.885724 6.194913,9.414706 c 0.358668,0.5468 0.537528,0.950813 0.537528,1.212315 0,0.713261 -0.676404,1.063624 -2.030012,1.051755 V 28 c 0.821412,-0.0712 1.879852,-0.105903 3.175616,-0.105903 2.279155,0 4.153765,0.03438 5.623059,0.105903 v -1.086966 c -0.937098,0 -1.613532,-0.0843 -2.030013,-0.250758 -0.543777,-0.225808 -1.058055,-0.706418 -1.54396,-1.443448 L 16.51179,13.271737 22.689524,7.2100444 C 24.089426,5.8311156 25.71433,5.1284135 27.565422,5.1046157 V 4 C 26.952251,4.071211 25.569559,4.1077288 23.417671,4.1077288 22.133486,4.1077288 21.093734,4.0712108 20.295455,4 v 1.1046157 c 1.052782,0.024346 1.578255,0.3990835 1.578255,1.124214 0,0.3922972 -0.208803,0.7905286 -0.625194,1.1946942 L 10.524644,17.907605 V 6.5676581 c 0,-0.3447321 0.03554,-0.6070549 0.104846,-0.7853856 0.185109,-0.4754979 1.004981,-0.7128968 2.462723,-0.7128968 0.115805,0 0.28344,0.00609 0.503232,0.018259 0.219762,0.012173 0.381918,0.018259 0.486053,0.018259 V 4.0012781 C 13.271636,4.0724895 12.578469,4.1090069 12.00001,4.1090069 H 6.0643094 C 5.4974306,4.1090069 4.809831,4.072489 4,4.0012781 Z"
       id="path13" />
  </g>
</svg>
