<?xml version="1.0" encoding="UTF-8" standalone="no"?>
<!-- Created with Inkscape (http://www.inkscape.org/) -->

<svg
   width="32"
   height="32"
   viewBox="0 0 32 32"
   version="1.1"
   id="svg3137"
   sodipodi:docname="v_2.svg"
   inkscape:version="1.3.2 (091e20ef0f, 2023-11-25)"
   xmlns:inkscape="http://www.inkscape.org/namespaces/inkscape"
   xmlns:sodipodi="http://sodipodi.sourceforge.net/DTD/sodipodi-0.dtd"
   xmlns="http://www.w3.org/2000/svg"
   xmlns:svg="http://www.w3.org/2000/svg">
  <sodipodi:namedview
     id="namedview3139"
     pagecolor="#ffffff"
     bordercolor="#666666"
     borderopacity="1.0"
     inkscape:showpageshadow="2"
     inkscape:pageopacity="0.0"
     inkscape:pagecheckerboard="0"
     inkscape:deskcolor="#d1d1d1"
     inkscape:document-units="px"
     showgrid="true"
     inkscape:zoom="18.58365"
     inkscape:cx="15.147724"
     inkscape:cy="17.353964"
     inkscape:window-width="959"
     inkscape:window-height="1131"
     inkscape:window-x="26"
     inkscape:window-y="23"
     inkscape:window-maximized="0"
     inkscape:current-layer="layer1">
    <inkscape:grid
       type="xygrid"
       id="grid3258"
       empspacing="4"
       originx="0"
       originy="0"
       spacingy="1"
       spacingx="1"
       units="px"
       visible="true" />
  </sodipodi:namedview>
  <defs
     id="defs3134" />
  <g
     inkscape:label="Слой 1"
     inkscape:groupmode="layer"
     id="layer1">
    <path
       style="font-style:normal;font-variant:normal;font-weight:normal;font-stretch:normal;font-family:Symbola;-inkscape-font-specification:Symbola;white-space:pre;shape-inside:url(#rect2-3-4-9-6);display:inline;fill:#4077bd;fill-opacity:1;stroke-width:3.3028"
       d="M 15.448245,4 C 13.166741,4 11.187508,4.6349866 9.5124679,5.9029825 7.8374646,7.1709784 7.0001847,8.7101375 7.0001847,10.519899 c 0,1.337137 0.802421,2.005529 2.4052297,2.005529 0.6642416,0 1.2200986,-0.183845 1.6677206,-0.552656 0.447621,-0.368869 0.670896,-0.82007 0.670896,-1.350327 0,-1.2564577 -0.874504,-1.8839783 -2.6217388,-1.8839783 -0.1445374,0 -0.2676342,0.011803 -0.3689213,0.03423 0.4764913,-1.0835318 1.2649771,-1.9654543 2.3624231,-2.6455609 1.09741,-0.6800771 2.346342,-1.0198502 3.747022,-1.0198502 1.934909,0 3.451329,0.6108183 4.54874,1.8327203 0.99638,1.0950699 1.494053,2.4448663 1.494053,4.0471471 0,2.512916 -1.574529,5.16975 -4.722443,7.970855 L 7.5209987,26.65159 C 7.1746273,26.962828 7,27.308148 7,27.688557 V 28 H 23.765262 L 25,21.742205 h -1.127684 c -0.375427,1.948102 -0.705645,3.019357 -0.994459,3.215331 -0.288706,0.184435 -1.416833,0.27739 -3.380653,0.27739 h -9.009499 l 9.268817,-7.177018 c 1.747234,-1.360184 2.940386,-2.403641 3.575757,-3.129842 C 24.444142,13.66007 25,12.347485 25,10.987271 25,8.8893191 24.053375,7.1830769 22.161788,5.8689871 20.356775,4.6240381 18.119408,4.0001767 15.448061,4.0001767 Z"
       id="path6" />
  </g>
</svg>
