<?xml version="1.0" encoding="UTF-8" standalone="no"?>
<!-- Created with Inkscape (http://www.inkscape.org/) -->

<svg
   width="32"
   height="32"
   viewBox="0 0 32 32"
   version="1.1"
   id="svg3137"
   sodipodi:docname="v_3.svg"
   inkscape:version="1.3.2 (091e20ef0f, 2023-11-25)"
   xmlns:inkscape="http://www.inkscape.org/namespaces/inkscape"
   xmlns:sodipodi="http://sodipodi.sourceforge.net/DTD/sodipodi-0.dtd"
   xmlns="http://www.w3.org/2000/svg"
   xmlns:svg="http://www.w3.org/2000/svg">
  <sodipodi:namedview
     id="namedview3139"
     pagecolor="#ffffff"
     bordercolor="#666666"
     borderopacity="1.0"
     inkscape:showpageshadow="2"
     inkscape:pageopacity="0.0"
     inkscape:pagecheckerboard="0"
     inkscape:deskcolor="#d1d1d1"
     inkscape:document-units="px"
     showgrid="true"
     inkscape:zoom="26.28125"
     inkscape:cx="16"
     inkscape:cy="16"
     inkscape:window-width="959"
     inkscape:window-height="1131"
     inkscape:window-x="26"
     inkscape:window-y="23"
     inkscape:window-maximized="0"
     inkscape:current-layer="layer1">
    <inkscape:grid
       type="xygrid"
       id="grid3258"
       empspacing="4"
       originx="0"
       originy="0"
       spacingy="1"
       spacingx="1"
       units="px"
       visible="true" />
  </sodipodi:namedview>
  <defs
     id="defs3134" />
  <g
     inkscape:label="Слой 1"
     inkscape:groupmode="layer"
     id="layer1">
    <path
       style="font-style:normal;font-variant:normal;font-weight:normal;font-stretch:normal;font-family:Symbola;-inkscape-font-specification:Symbola;white-space:pre;shape-inside:url(#rect2-3-4-9-6);display:inline;fill:#4077bd;fill-opacity:1;stroke-width:3.18608"
       d="m 15.866284,4.0012861 c -1.928389,0 -3.642264,0.3974653 -5.140595,1.1901661 -1.7063805,0.9043718 -2.5599971,2.0930229 -2.5599971,3.5667823 0,0.5359177 0.2010181,0.9711115 0.6034451,1.3060675 0.4162069,0.32378 0.9569316,0.485612 1.622849,0.485612 0.638178,0 1.158836,-0.167206 1.561158,-0.502161 0.416206,-0.3349561 0.624008,-0.7593744 0.624008,-1.2729408 0,-1.1946533 -0.893785,-1.7809044 -2.6834503,-1.7585817 1.1653733,-1.4514365 3.0937253,-2.1761116 5.7851673,-2.1761116 1.373422,0 2.425855,0.3902052 3.161133,1.171759 0.665917,0.7033813 0.99884,1.6241021 0.99884,2.7629343 0,1.6077528 -0.402178,2.9366858 -1.206855,3.9861988 -0.846265,1.116481 -2.128839,1.71891 -3.849141,1.80823 -0.443945,0.02287 -0.895313,0.0403 -1.353143,0.05145 -0.665917,0.06688 -0.998841,0.223514 -0.998841,0.469063 0,0.256956 0.230141,0.384462 0.687973,0.384462 h 2.246893 c 1.85899,0 3.226553,0.631209 4.100555,1.892861 0.707542,0.993662 1.060566,2.299215 1.060566,3.918144 0,1.52958 -0.33278,2.802777 -0.99884,3.818791 -0.860152,1.295149 -2.158423,1.94251 -3.892577,1.94251 -1.331834,0 -2.585355,-0.217511 -3.764578,-0.65302 -1.29021,-0.480096 -2.2555589,-1.150865 -2.8937379,-2.010563 0.138866,0.01143 0.2773767,0.01715 0.4160292,0.01715 0.6936547,0 1.2768557,-0.179782 1.7485747,-0.537119 0.485533,-0.357278 0.729134,-0.819425 0.729134,-1.388841 0,-0.55824 -0.23689,-1.022216 -0.708572,-1.390642 -0.457831,-0.37963 -1.034354,-0.570245 -1.7280093,-0.570245 -0.735279,0 -1.3251926,0.190643 -1.7691371,0.570245 C 7.2211911,21.46309 7,21.948617 7,22.540356 7,24.226282 7.9720256,25.587569 9.9142659,26.625907 11.634568,27.541425 13.589736,28 15.781722,28 18.20953,28 20.332331,27.379592 22.149733,26.140266 24.050349,24.822794 25,23.20435 25,21.283993 c 0,-1.58543 -0.72846,-2.975528 -2.185131,-4.170153 -1.359571,-1.116511 -3.044395,-1.835812 -5.055997,-2.159591 1.734155,-0.457746 3.16426,-1.229239 4.287973,-2.31225 1.206996,-1.149979 1.810299,-2.428579 1.810299,-3.8353699 0,-1.4961108 -0.902771,-2.7009394 -2.706286,-3.6164584 C 19.597051,4.3974651 17.836296,4 15.866284,4 Z"
       id="path7" />
  </g>
</svg>
