<?xml version="1.0" encoding="UTF-8" standalone="no"?>
<!-- Created with Inkscape (http://www.inkscape.org/) -->

<svg
   width="32"
   height="32"
   viewBox="0 0 32 32"
   version="1.1"
   id="svg3137"
   sodipodi:docname="v_4.svg"
   inkscape:version="1.3.2 (091e20ef0f, 2023-11-25)"
   xmlns:inkscape="http://www.inkscape.org/namespaces/inkscape"
   xmlns:sodipodi="http://sodipodi.sourceforge.net/DTD/sodipodi-0.dtd"
   xmlns="http://www.w3.org/2000/svg"
   xmlns:svg="http://www.w3.org/2000/svg">
  <sodipodi:namedview
     id="namedview3139"
     pagecolor="#ffffff"
     bordercolor="#666666"
     borderopacity="1.0"
     inkscape:showpageshadow="2"
     inkscape:pageopacity="0.0"
     inkscape:pagecheckerboard="0"
     inkscape:deskcolor="#d1d1d1"
     inkscape:document-units="px"
     showgrid="true"
     inkscape:zoom="26.28125"
     inkscape:cx="16.03805"
     inkscape:cy="16.0761"
     inkscape:window-width="959"
     inkscape:window-height="1131"
     inkscape:window-x="26"
     inkscape:window-y="23"
     inkscape:window-maximized="0"
     inkscape:current-layer="layer1">
    <inkscape:grid
       type="xygrid"
       id="grid3258"
       empspacing="4"
       originx="0"
       originy="0"
       spacingy="1"
       spacingx="1"
       units="px"
       visible="true" />
  </sodipodi:namedview>
  <defs
     id="defs3134" />
  <g
     inkscape:label="Слой 1"
     inkscape:groupmode="layer"
     id="layer1">
    <path
       id="text2-4-7-9-5"
       style="font-style:normal;font-variant:normal;font-weight:normal;font-stretch:normal;font-family:Symbola;-inkscape-font-specification:Symbola;white-space:pre;shape-inside:url(#rect2-3-4-9-6);display:inline;fill:#4077bd;fill-opacity:1;stroke-width:3.27541"
       d="m 20.778215,4.0007253 c -0.375594,0 -0.678074,0.1424344 -0.909214,0.4256788 L 6,21.049896 v 1.086563 h 12.026791 v 3.33256 c 0,0.351271 -0.06509,0.62323 -0.195268,0.815851 -0.288834,0.430609 -1.229003,0.645974 -2.818069,0.645974 -0.245565,0 -0.706255,-0.0058 -1.385254,-0.01741 V 28 c 1.199048,-0.06787 2.201865,-0.100954 3.010858,-0.100954 h 6.176453 c 0.852333,0 1.878451,0.03278 3.0775,0.100954 v -1.086563 c -2.528089,0.0116 -3.931206,-0.198713 -4.20569,-0.629177 -0.130179,-0.203934 -0.195268,-0.475895 -0.195268,-0.815851 v -3.33256 H 26 V 21.049287 H 21.492053 V 4.9354839 c 0,-0.3626132 -0.01479,-0.5780053 -0.04291,-0.6459736 C 21.362615,4.0968902 21.139239,4 20.777956,4 Z M 18.286222,7.8429451 V 21.049896 H 7.2567031 Z" />
  </g>
</svg>
