<?xml version="1.0" encoding="UTF-8" standalone="no"?>
<!-- Created with Inkscape (http://www.inkscape.org/) -->

<svg
   width="32"
   height="32"
   viewBox="0 0 32 32"
   version="1.1"
   id="svg3137"
   sodipodi:docname="v_7.svg"
   inkscape:version="1.3.2 (091e20ef0f, 2023-11-25)"
   xmlns:inkscape="http://www.inkscape.org/namespaces/inkscape"
   xmlns:sodipodi="http://sodipodi.sourceforge.net/DTD/sodipodi-0.dtd"
   xmlns="http://www.w3.org/2000/svg"
   xmlns:svg="http://www.w3.org/2000/svg">
  <sodipodi:namedview
     id="namedview3139"
     pagecolor="#ffffff"
     bordercolor="#666666"
     borderopacity="1.0"
     inkscape:showpageshadow="2"
     inkscape:pageopacity="0.0"
     inkscape:pagecheckerboard="0"
     inkscape:deskcolor="#d1d1d1"
     inkscape:document-units="px"
     showgrid="true"
     inkscape:zoom="26.28125"
     inkscape:cx="16"
     inkscape:cy="16"
     inkscape:window-width="959"
     inkscape:window-height="1131"
     inkscape:window-x="26"
     inkscape:window-y="23"
     inkscape:window-maximized="0"
     inkscape:current-layer="layer1">
    <inkscape:grid
       type="xygrid"
       id="grid3258"
       empspacing="4"
       originx="0"
       originy="0"
       spacingy="1"
       spacingx="1"
       units="px"
       visible="true" />
  </sodipodi:namedview>
  <defs
     id="defs3134" />
  <g
     inkscape:label="Слой 1"
     inkscape:groupmode="layer"
     id="layer1">
    <path
       style="font-style:normal;font-variant:normal;font-weight:normal;font-stretch:normal;font-family:Symbola;-inkscape-font-specification:Symbola;white-space:pre;shape-inside:url(#rect2-3-4-9-6);display:inline;fill:#4077bd;fill-opacity:1;stroke-width:3.25955"
       d="M 8.4643757,3 7,10.388421 H 8.1029557 C 8.5133983,8.3838922 8.882717,7.2953727 9.2082666,7.1235366 9.477113,6.9860091 10.43916,6.9179785 12.095096,6.9179785 H 22.68874 c -2.179606,2.5200069 -3.820905,4.4036645 -4.924876,5.6522015 -3.623257,4.581806 -5.435575,9.072386 -5.435575,13.470919 0,1.305806 0.672478,1.958901 2.017068,1.958901 1.358721,0 2.038046,-0.653095 2.038046,-1.958901 0,-3.413468 0.16196,-5.98529 0.487365,-7.71494 0.481205,-2.577246 1.388541,-4.615907 2.718928,-6.116452 L 25.596587,5.4232983 C 25.865431,5.1140522 26,4.7764207 26,4.4098765 V 4.1512426 H 15.236135 c -3.142052,0 -4.931543,-0.1938285 -5.3702838,-0.5831574 C 9.6959214,3.4191215 9.5955562,3.2291343 9.5672952,3.0000586 Z"
       id="path2" />
  </g>
</svg>
