<?xml version="1.0" encoding="UTF-8" standalone="no"?>
<!-- Created with Inkscape (http://www.inkscape.org/) -->

<svg
   width="32"
   height="32"
   viewBox="0 0 32 32"
   version="1.1"
   id="svg3137"
   sodipodi:docname="v_8.svg"
   inkscape:version="1.3.2 (091e20ef0f, 2023-11-25)"
   xmlns:inkscape="http://www.inkscape.org/namespaces/inkscape"
   xmlns:sodipodi="http://sodipodi.sourceforge.net/DTD/sodipodi-0.dtd"
   xmlns="http://www.w3.org/2000/svg"
   xmlns:svg="http://www.w3.org/2000/svg">
  <sodipodi:namedview
     id="namedview3139"
     pagecolor="#ffffff"
     bordercolor="#666666"
     borderopacity="1.0"
     inkscape:showpageshadow="2"
     inkscape:pageopacity="0.0"
     inkscape:pagecheckerboard="0"
     inkscape:deskcolor="#d1d1d1"
     inkscape:document-units="px"
     showgrid="true"
     inkscape:zoom="26.28125"
     inkscape:cx="16"
     inkscape:cy="16"
     inkscape:window-width="959"
     inkscape:window-height="1131"
     inkscape:window-x="26"
     inkscape:window-y="23"
     inkscape:window-maximized="0"
     inkscape:current-layer="layer1">
    <inkscape:grid
       type="xygrid"
       id="grid3258"
       empspacing="4"
       originx="0"
       originy="0"
       spacingy="1"
       spacingx="1"
       units="px"
       visible="true" />
  </sodipodi:namedview>
  <defs
     id="defs3134" />
  <g
     inkscape:label="Слой 1"
     inkscape:groupmode="layer"
     id="layer1">
    <path
       id="path10"
       style="font-style:normal;font-variant:normal;font-weight:normal;font-stretch:normal;font-family:Symbola;-inkscape-font-specification:Symbola;white-space:pre;shape-inside:url(#rect2-3-4-9-6);display:inline;fill:#4077bd;fill-opacity:1;stroke-width:3.18608"
       d="M 16.03088,4 C 13.935998,4 12.119381,4.5431205 10.579429,5.6261318 8.9701512,6.7537887 8.1657251,8.1492615 8.1657251,9.8128361 c 0,1.4626119 0.6323891,2.7465859 1.8948579,3.8519199 1.373457,0.893197 2.441549,1.517175 3.204564,1.874455 C 9.0893057,17.202786 7,19.346343 7,21.970111 7,23.778825 7.9586343,25.264246 9.8731682,26.425402 11.607318,27.474887 13.638451,28 15.969155,28 18.369222,28 20.44954,27.392197 22.211429,26.175222 24.070452,24.891248 25,23.299758 25,21.401723 25,19.782794 24.293916,18.342361 22.878871,17.08071 22.365567,16.622964 21.692974,16.171594 20.860562,15.724995 20.63859,15.602092 19.881079,15.22815 18.590873,14.602913 c 3.509925,-1.44029 5.266274,-3.243976 5.266274,-5.409998 0,-1.5630794 -0.840191,-2.8416792 -2.518866,-3.8353423 C 19.826102,4.4532007 18.056365,4 16.03088,4 Z m -0.0618,0.8388328 c 1.58154,0 2.955778,0.4009809 4.121148,1.2048577 1.234695,0.8485507 1.851423,1.8987495 1.851423,3.1492245 0,1.920386 -1.443527,3.549606 -4.329163,4.8894 -3.149193,-1.630077 -4.930083,-2.566975 -5.346253,-2.812582 -1.470589,-0.859699 -2.205724,-1.7984266 -2.205724,-2.814441 0,-1.1165097 0.656895,-2.0210533 1.974876,-2.7132876 1.165334,-0.6028861 2.476992,-0.9031716 3.933696,-0.9031716 z M 14.24335,16.092907 c 2.497201,1.216976 4.278056,2.12152 5.34629,2.713259 1.068235,0.580591 1.832492,1.098474 2.290288,1.556219 0.652064,0.658736 0.978274,1.414051 0.978274,2.262603 0,1.317443 -0.750834,2.405399 -2.249126,3.265096 -1.345718,0.770407 -2.871889,1.15521 -4.578266,1.15521 -1.831286,0 -3.417728,-0.469349 -4.763445,-1.40722 -1.4011928,-0.993663 -2.1028375,-2.216526 -2.1028375,-3.667963 0,-2.422778 1.6937705,-4.381093 5.0788225,-5.877204 z" />
  </g>
</svg>
