<?xml version="1.0" encoding="UTF-8" standalone="no"?>
<!-- Created with Inkscape (http://www.inkscape.org/) -->

<svg
   width="32"
   height="32"
   viewBox="0 0 32 32"
   version="1.1"
   id="svg3137"
   sodipodi:docname="v_9.svg"
   inkscape:version="1.3.2 (091e20ef0f, 2023-11-25)"
   xmlns:inkscape="http://www.inkscape.org/namespaces/inkscape"
   xmlns:sodipodi="http://sodipodi.sourceforge.net/DTD/sodipodi-0.dtd"
   xmlns="http://www.w3.org/2000/svg"
   xmlns:svg="http://www.w3.org/2000/svg">
  <sodipodi:namedview
     id="namedview3139"
     pagecolor="#ffffff"
     bordercolor="#666666"
     borderopacity="1.0"
     inkscape:showpageshadow="2"
     inkscape:pageopacity="0.0"
     inkscape:pagecheckerboard="0"
     inkscape:deskcolor="#d1d1d1"
     inkscape:document-units="px"
     showgrid="true"
     inkscape:zoom="26.28125"
     inkscape:cx="16"
     inkscape:cy="16"
     inkscape:window-width="959"
     inkscape:window-height="1131"
     inkscape:window-x="26"
     inkscape:window-y="23"
     inkscape:window-maximized="0"
     inkscape:current-layer="layer1">
    <inkscape:grid
       type="xygrid"
       id="grid3258"
       empspacing="4"
       originx="0"
       originy="0"
       spacingy="1"
       spacingx="1"
       units="px"
       visible="true" />
  </sodipodi:namedview>
  <defs
     id="defs3134" />
  <g
     inkscape:label="Слой 1"
     inkscape:groupmode="layer"
     id="layer1">
    <path
       id="path11"
       style="font-style:normal;font-variant:normal;font-weight:normal;font-stretch:normal;font-family:Symbola;-inkscape-font-specification:Symbola;white-space:pre;shape-inside:url(#rect2-3-4-9-6);display:inline;fill:#4077bd;fill-opacity:1;stroke-width:3.18553"
       d="m 16.156589,4.0082929 c -2.511094,0 -4.640571,0.726282 -6.3886118,2.1772174 C 7.9228364,7.7145912 7,9.605713 7,11.860276 c 0,2.075957 0.7910026,3.873647 2.3725466,5.391556 1.6647914,1.596026 3.7674914,2.394197 6.3063214,2.394197 2.483284,0 4.293228,-1.166698 5.430863,-3.499349 0,2.343823 -0.187877,4.186458 -0.562283,5.525789 -0.596555,2.176417 -1.727228,3.704414 -3.39202,4.586129 -0.984989,0.524561 -2.010607,0.787027 -3.078845,0.787027 -1.956126,0 -3.379555,-0.424243 -4.2674433,-1.272473 0.6104063,0.05571 1.1377763,-0.07171 1.5817223,-0.384327 0.457795,-0.312525 0.685697,-0.715225 0.685697,-1.206298 0,-0.457617 -0.192139,-0.836915 -0.580572,-1.138268 -0.388434,-0.312496 -0.868889,-0.468902 -1.437706,-0.468902 -1.3179472,0 -1.9771516,0.559105 -1.9771516,1.675201 0,1.272358 0.6391026,2.237705 1.9154259,2.896213 C 11.078679,27.715991 12.452918,28 14.117711,28 16.44842,28 18.548846,27.268347 20.421724,25.806239 22.07263,24.52271 23.288256,22.915598 24.065159,20.984731 24.689451,19.433335 25,17.687818 25,15.745781 25,10.165246 23.348703,6.5483227 20.046857,4.8964662 18.867633,4.3049317 17.571636,4.0082929 16.156589,4.0082929 Z m 0,0.8385431 c 1.914501,0 3.302129,0.9311747 4.162282,2.7950671 0.471682,1.0156633 0.706261,2.6515479 0.706261,4.9061119 0,1.596025 -0.379802,2.967615 -1.142855,4.117225 -0.95725,1.439765 -2.338167,2.160646 -4.141719,2.160646 -1.817367,0 -3.169231,-0.737054 -4.05712,-2.210304 -0.513342,-0.859401 -0.770297,-2.187904 -0.770297,-3.984822 v -1.439849 c 0,-1.8638931 0.297265,-3.2427115 0.893714,-4.1355995 0.984989,-1.4732789 2.435196,-2.2084755 4.349734,-2.2084755 z" />
  </g>
</svg>
