<?xml version="1.0" encoding="UTF-8" standalone="no"?>
<!-- Created with Inkscape (http://www.inkscape.org/) -->

<svg
   width="32"
   height="32"
   viewBox="0 0 32 32"
   version="1.1"
   id="svg3137"
   sodipodi:docname="v_10.svg"
   inkscape:version="1.3.2 (091e20ef0f, 2023-11-25)"
   xmlns:inkscape="http://www.inkscape.org/namespaces/inkscape"
   xmlns:sodipodi="http://sodipodi.sourceforge.net/DTD/sodipodi-0.dtd"
   xmlns="http://www.w3.org/2000/svg"
   xmlns:svg="http://www.w3.org/2000/svg">
  <sodipodi:namedview
     id="namedview3139"
     pagecolor="#ffffff"
     bordercolor="#666666"
     borderopacity="1.0"
     inkscape:showpageshadow="2"
     inkscape:pageopacity="0.0"
     inkscape:pagecheckerboard="0"
     inkscape:deskcolor="#d1d1d1"
     inkscape:document-units="px"
     showgrid="true"
     inkscape:zoom="74.3346"
     inkscape:cx="10.513274"
     inkscape:cy="23.522021"
     inkscape:window-width="959"
     inkscape:window-height="1131"
     inkscape:window-x="26"
     inkscape:window-y="23"
     inkscape:window-maximized="0"
     inkscape:current-layer="layer1">
    <inkscape:grid
       type="xygrid"
       id="grid3258"
       empspacing="4"
       originx="0"
       originy="0"
       spacingy="1"
       spacingx="1"
       units="px"
       visible="true" />
  </sodipodi:namedview>
  <defs
     id="defs3134" />
  <g
     inkscape:label="Слой 1"
     inkscape:groupmode="layer"
     id="layer1">
    <path
       id="path2487"
       style="font-weight:bold;font-size:40.4274px;line-height:1.25;font-family:FreeSerif;-inkscape-font-specification:'FreeSerif Bold';fill:#00d4bd;fill-opacity:1;stroke:none;stroke-width:0.996982"
       d="M 9.7724081,4 4,7 V 8 L 5.4804688,7.8367188 C 6.1765175,7.7599515 6,8.6391028 6,10.24375 V 23.673437 C 5.9902549,25.293768 6,27 4,27.16328 V 28 h 8.772408 v -0.83672 c -2,-0.16328 -2,-1.558696 -2,-3.16328 V 4 Z M 21,4 C 19.01771,4 17.355101,5.1517586 16.012923,7.4570312 14.670742,9.73948 14,12.55808 14,15.91328 c 0,3.537796 0.651044,6.438031 1.951923,8.697657 C 17.273457,26.870561 18.966658,28 21.031551,28 23.034485,28 24.697074,26.870561 26.01863,24.610937 27.340164,22.328487 28,19.462903 28,16.016406 28,12.592733 27.329269,9.73948 25.987079,7.4570312 24.665546,5.1517586 23.002946,4 21,4 Z m -0.02421,0.9585937 c 0.586175,0 1.00688,0.5597251 1.260357,1.6781251 0.253476,1.1183995 0.379237,2.9438248 0.379237,5.4773442 v 7.839843 c 0,2.670466 -0.134135,4.520554 -0.403444,5.547657 -0.269333,1.027101 -0.664935,1.539843 -1.187737,1.539843 -0.586175,0 -1.006879,-0.547393 -1.260357,-1.642969 -0.253477,-1.095575 -0.379236,-2.911012 -0.379236,-5.444531 v -7.839843 c 0,-2.5791698 0.119013,-4.4169257 0.356644,-5.5125004 0.253485,-1.0955755 0.664201,-1.6429689 1.234536,-1.6429689 z"
       sodipodi:nodetypes="cccsscccccsccscscscscssssscsssscs" />
  </g>
</svg>
