<?xml version="1.0" encoding="UTF-8" standalone="no"?>
<!-- Created with Inkscape (http://www.inkscape.org/) -->

<svg
   width="32"
   height="32"
   viewBox="0 0 32 32"
   version="1.1"
   id="svg3137"
   sodipodi:docname="s_0_1.svg"
   inkscape:version="1.2.2 (unknown)"
   xmlns:inkscape="http://www.inkscape.org/namespaces/inkscape"
   xmlns:sodipodi="http://sodipodi.sourceforge.net/DTD/sodipodi-0.dtd"
   xmlns="http://www.w3.org/2000/svg"
   xmlns:svg="http://www.w3.org/2000/svg">
  <sodipodi:namedview
     id="namedview3139"
     pagecolor="#ffffff"
     bordercolor="#666666"
     borderopacity="1.0"
     inkscape:showpageshadow="2"
     inkscape:pageopacity="0.0"
     inkscape:pagecheckerboard="0"
     inkscape:deskcolor="#d1d1d1"
     inkscape:document-units="px"
     showgrid="true"
     inkscape:zoom="17.214677"
     inkscape:cx="14.464402"
     inkscape:cy="16.526595"
     inkscape:window-width="960"
     inkscape:window-height="1023"
     inkscape:window-x="0"
     inkscape:window-y="24"
     inkscape:window-maximized="0"
     inkscape:current-layer="layer1">
    <inkscape:grid
       type="xygrid"
       id="grid3258"
       empspacing="4" />
  </sodipodi:namedview>
  <defs
     id="defs3134" />
  <g
     inkscape:label="Слой 1"
     inkscape:groupmode="layer"
     id="layer1">
    <path
       id="path2451"
       style="fill:#00d4bd;fill-rule:evenodd;stroke-width:4.28571"
       d="M 16,4 C 16,4 11.714286,7.4285714 9.1428571,10 6.5714286,12.571429 4,16 4,19.428571 c 0,3.31371 2.6862915,6 6,6 2.45846,-0.0062 4.664383,-1.511539 5.566407,-3.798548 -0.297492,1.302338 -0.735486,2.871962 -1.280693,3.798548 C 13.670983,26.473315 11.714286,28 11.714286,28 c 0,0 2.828855,-0.857144 4.285714,-0.857144 1.456859,0 4.285714,0.857144 4.285714,0.857144 0,0 -1.956697,-1.526685 -2.571428,-2.571429 -0.545207,-0.926586 -0.983201,-2.49621 -1.280693,-3.798548 0.902026,2.287009 3.107947,3.792344 5.566407,3.798548 3.313707,0 6,-2.68629 6,-6 C 28,16 25.428571,12.571429 22.857144,10 20.285714,7.4285714 16,4 16,4 Z"
       sodipodi:nodetypes="cccccscscsccccc" />
  </g>
</svg>
